<?xml version="1.0" encoding="UTF-8" standalone="yes"?>
<!DOCTYPE svg PUBLIC "-//W3C//DTD SVG 1.1//EN" "http://www.w3.org/Graphics/SVG/1.1/DTD/svg11.dtd">

<svg width="32" height="32" viewBox="0 0 32 32" xmlns="http://www.w3.org/2000/svg" xmlns:xlink="http://www.w3.org/1999/xlink" version="1.1" baseProfile="full">
    <g transform="scale(1.000000,-1.000000) translate(0,-32)">
        <path d="M 31.778744 23.051687 C 30.646343 22.548968 29.429300 22.210402 28.151982 22.057790 C 29.456232 22.838801 30.457823 24.076363 30.928482 25.551178 C 29.708874 24.827877 28.357174 24.302074 26.918268 24.018653 C 25.767912 25.245955 24.125097 26.012859 22.309150 26.012859 C 18.232249 26.012859 15.236452 22.209119 16.157249 18.260463 C 10.910756 18.523364 6.258036 21.036962 3.142970 24.857373 C 1.488613 22.019317 2.285013 18.306631 5.096138 16.426563 C 4.062485 16.459906 3.087825 16.743327 2.237562 17.216550 C 2.168310 14.291287 4.265112 11.554544 7.301948 10.945381 C 6.413212 10.704281 5.439834 10.647854 4.449784 10.837656 C 5.252597 8.329188 7.584086 6.504265 10.349043 6.452967 C 7.694377 4.371555 4.349753 3.441780 1.000000 3.836774 C 3.794453 2.045195 7.114711 1.000000 10.679915 1.000000 C 22.404052 1.000000 29.027894 10.901779 28.627770 19.782729 C 29.861485 20.674030 30.932328 21.785912 31.778744 23.051688 Z" transform="scale(1.000000,1.000000) translate(-0.389372,0.629493)" opacity="1.000000"></path>
    </g>
</svg>