<?xml version="1.0" encoding="UTF-8" standalone="yes"?>
<!DOCTYPE svg PUBLIC "-//W3C//DTD SVG 1.1//EN" "http://www.w3.org/Graphics/SVG/1.1/DTD/svg11.dtd">

<svg width="32" height="32" viewBox="0 0 32 32" xmlns="http://www.w3.org/2000/svg" xmlns:xlink="http://www.w3.org/1999/xlink" version="1.1" baseProfile="full">
    <g transform="scale(1.000000,-1.000000) translate(0,-32)">
        <path d="M 16.708599 31.417698 C 15.596747 31.417655 13.395119 31.108102 12.327189 30.801670 C 11.259258 30.495236 9.231551 29.591218 8.291893 29.002601 C 7.352236 28.413984 5.658606 26.986901 4.921439 26.162591 C 4.184272 25.338282 2.958490 23.500848 2.482038 22.505957 C 2.005586 21.511061 1.344470 19.408408 1.166366 18.321511 C 0.988262 17.234615 0.944029 15.032819 1.078340 13.939765 C 1.212651 12.846714 1.788796 10.719682 2.224913 9.706808 C 2.661031 8.693933 3.812046 6.809670 4.515525 5.956975 C 5.219002 5.104281 6.853976 3.611612 7.769250 2.986448 C 8.684524 2.361284 10.674319 1.378107 11.729097 1.029851 C 12.516375 0.893377 12.811604 1.361166 12.811604 1.770543 C 12.811604 2.140873 12.791906 3.368878 12.791906 4.674819 C 8.835820 3.953635 7.812359 5.629876 7.497448 6.507012 C 7.445280 6.634372 7.328604 6.883787 7.264231 7.005548 C 7.199861 7.127309 7.059356 7.364370 6.983387 7.479388 C 6.907417 7.594407 6.744403 7.816885 6.657549 7.924082 C 6.570694 8.031279 6.386701 8.237086 6.289778 8.335454 C 6.192855 8.433822 5.989610 8.621025 5.883528 8.709641 C 5.332434 9.002019 4.545156 9.723219 5.863831 9.742680 C 6.014277 9.726513 6.310657 9.665770 6.455226 9.621473 C 6.599795 9.577178 6.879029 9.461554 7.012410 9.390755 C 7.145789 9.319958 7.397621 9.153698 7.514912 9.059000 C 7.632204 8.964303 7.847381 8.753515 7.944275 8.638395 C 8.041170 8.523276 8.211788 8.275705 8.284725 8.144393 C 8.349156 8.029763 8.495815 7.811248 8.577589 7.708036 C 8.659363 7.604823 8.838788 7.411770 8.935885 7.322525 C 9.032980 7.233279 9.240739 7.070458 9.350757 6.997386 C 9.460776 6.924312 9.691732 6.795747 9.811956 6.740653 C 9.932178 6.685558 10.180626 6.594427 10.308081 6.558671 C 10.435537 6.522917 10.695335 6.471471 10.826873 6.455939 C 10.958413 6.440407 11.223141 6.429918 11.355513 6.434994 C 11.487884 6.440070 11.751002 6.470797 11.880935 6.496355 C 12.010867 6.521911 12.265872 6.593095 12.390153 6.638502 C 12.514438 6.683910 12.755026 6.793792 12.870588 6.857928 C 12.880705 6.975603 12.917979 7.208904 12.945038 7.323925 C 12.972096 7.438947 13.042776 7.664539 13.086215 7.774528 C 13.129654 7.884516 13.232278 8.097735 13.291199 8.200414 C 13.350119 8.303093 13.482568 8.499529 13.555750 8.592776 C 13.628934 8.686023 13.788465 8.861612 13.874398 8.943499 C 10.371011 9.333336 6.710169 10.678340 6.710169 16.642797 C 6.706889 16.872589 6.735442 17.331353 6.767195 17.559006 C 6.798948 17.786661 6.897043 18.235909 6.963103 18.456216 C 7.029163 18.676524 7.194553 19.105982 7.293409 19.313900 C 7.392266 19.521821 7.621167 19.921659 7.750557 20.112437 C 7.879948 20.303211 8.167125 20.664286 8.324089 20.833555 C 8.252711 21.033280 8.140816 21.442265 8.100620 21.650357 C 8.060424 21.858452 8.011992 22.279461 8.003894 22.491176 C 7.995797 22.702887 8.011931 23.126321 8.036117 23.336826 C 8.060303 23.547335 8.140635 23.963531 8.196554 24.168034 C 8.252471 24.372534 8.395171 24.772005 8.481544 24.965836 C 8.567918 25.159665 9.800187 25.375181 12.811573 23.367500 C 13.195806 23.472157 13.974506 23.640332 14.367851 23.703610 C 14.761194 23.766887 15.553607 23.851465 15.951534 23.872638 C 16.349460 23.893813 17.146462 23.893813 17.544388 23.872638 C 17.942316 23.851465 18.734728 23.766887 19.128071 23.703610 C 19.521416 23.640332 20.300116 23.472157 20.684351 23.367500 C 23.695656 25.394657 25.014379 24.965836 25.014379 24.965836 C 25.100764 24.772009 25.243481 24.372542 25.299408 24.168040 C 25.355333 23.963540 25.435674 23.547343 25.459863 23.336834 C 25.484052 23.126324 25.500185 22.702891 25.492087 22.491174 C 25.483985 22.279459 25.435545 21.858447 25.395339 21.650353 C 25.355137 21.442261 25.243224 21.033278 25.171835 20.833555 C 25.329249 20.664601 25.617198 20.303952 25.746900 20.113299 C 25.876602 19.922647 26.105955 19.522894 26.204940 19.314958 C 26.303923 19.107021 26.469364 18.677432 26.535340 18.457024 C 26.601316 18.236620 26.699015 17.787144 26.730450 17.559374 C 26.761892 17.331606 26.789583 16.872652 26.785753 16.642797 C 26.785753 10.658832 23.105198 9.333336 19.601843 8.943499 C 19.714210 8.830707 19.918608 8.586892 20.009888 8.456763 C 20.101165 8.326633 20.260541 8.051845 20.328053 7.908196 C 20.395565 7.764545 20.505244 7.466849 20.547008 7.313896 C 20.588770 7.160942 20.645532 6.849075 20.660321 6.691307 C 20.675109 6.533537 20.677288 6.216651 20.664668 6.058698 C 20.664668 3.973034 20.644972 2.296794 20.644972 1.770481 C 20.644972 1.361136 20.940199 0.873854 21.727478 1.029789 C 22.780419 1.380895 24.765946 2.368862 25.678876 2.995945 C 26.591803 3.623028 28.221854 5.118564 28.922840 5.972213 C 29.623826 6.825865 30.769962 8.711133 31.203771 9.724090 C 31.637578 10.737046 32.209500 12.863503 32.341949 13.955954 C 32.474400 15.048405 32.427042 17.248502 32.247698 18.334370 C 32.068355 19.420238 31.405445 21.520622 30.928440 22.514351 C 30.451435 23.508077 29.225210 25.343259 28.488125 26.166549 C 27.751043 26.989836 26.058118 28.415216 25.119032 29.003198 C 24.179947 29.591180 22.153709 30.494445 21.086614 30.800792 C 20.019519 31.107138 17.819623 31.417127 16.708599 31.417698 Z" transform="scale(1.000000,1.000000) translate(-0.708854,-0.208849)" opacity="1.000000"></path>
    </g>
</svg>