<?xml version="1.0" encoding="UTF-8" standalone="yes"?>
<!DOCTYPE svg PUBLIC "-//W3C//DTD SVG 1.1//EN" "http://www.w3.org/Graphics/SVG/1.1/DTD/svg11.dtd">

<svg width="64" height="64" viewBox="0 0 64 64" xmlns="http://www.w3.org/2000/svg" xmlns:xlink="http://www.w3.org/1999/xlink" version="1.1" baseProfile="full">
    <g transform="scale(1.000000,-1.000000) translate(0,-64)">
        <path d="M 54.408410 37.975053 L 2.369446 37.975053 C 1.616251 37.975053 1.000000 37.358803 1.000000 36.605607 L 1.000000 2.369446 C 1.000000 1.616251 1.616251 1.000000 2.369446 1.000000 L 54.408410 1.000000 C 55.161606 1.000000 55.777857 1.616251 55.777857 2.369446 L 55.777857 36.605607 C 55.777857 37.358803 55.161606 37.975053 54.408410 37.975053 Z M 51.121739 35.236161 L 28.388928 12.503349 L 5.656117 35.236161 L 51.121740 35.236161 Z M 3.738893 33.318936 L 17.570302 19.487527 L 3.738893 5.656120 L 3.738893 33.318936 Z M 5.724590 3.738893 L 19.487527 17.501828 L 27.430316 9.559039 C 27.978095 9.011260 28.799763 9.011260 29.347541 9.559039 L 37.290330 17.501828 L 51.053266 3.738893 L 5.724590 3.738893 Z M 53.038964 5.656120 L 39.207557 19.487527 L 53.038964 33.318936 L 53.038964 5.656117 Z" transform="scale(1.000000,1.000000) translate(3.611072,3.888034)" opacity="1.000000"></path>
    </g>
</svg>