<?xml version="1.0" encoding="UTF-8" standalone="yes"?>
<!DOCTYPE svg PUBLIC "-//W3C//DTD SVG 1.1//EN" "http://www.w3.org/Graphics/SVG/1.1/DTD/svg11.dtd">

<svg width="64" height="64" viewBox="0 0 64 64" xmlns="http://www.w3.org/2000/svg" xmlns:xlink="http://www.w3.org/1999/xlink" version="1.1" baseProfile="full">
    <g transform="scale(1.000000,-1.000000) translate(0,-64)">
        <path d="M 23.942554 45.425331 C 22.318683 45.425265 19.103186 44.973165 17.543464 44.525617 C 15.983742 44.078069 13.022257 42.757741 11.649878 41.898061 C 10.277499 41.038381 7.803937 38.954110 6.727298 37.750199 C 5.650658 36.546288 3.860393 33.862699 3.164530 32.409648 C 2.468668 30.956597 1.503102 27.885651 1.242979 26.298228 C 0.982856 24.710805 0.918254 21.495061 1.114416 19.898647 C 1.310579 18.302234 2.152044 15.195685 2.788997 13.716373 C 3.425951 12.237061 5.107020 9.485076 6.134456 8.239708 C 7.161892 6.994341 9.549787 4.814284 10.886553 3.901225 C 12.223319 2.988167 15.129433 1.552229 16.669946 1.043597 C 17.819772 0.844275 18.250957 1.527486 18.250957 2.125384 C 18.250957 2.666255 18.222189 4.459768 18.222189 6.367107 C 12.444288 5.313811 10.949513 7.761977 10.489583 9.043041 C 10.413391 9.229052 10.242984 9.593325 10.148969 9.771158 C 10.054955 9.948992 9.849746 10.295220 9.738792 10.463206 C 9.627838 10.631193 9.389754 10.956124 9.262902 11.112686 C 9.136051 11.269248 8.867327 11.569831 8.725770 11.713499 C 8.584213 11.857166 8.287372 12.130578 8.132438 12.260002 C 7.327560 12.687023 6.177733 13.740343 8.103670 13.768765 C 8.323399 13.745153 8.756264 13.656437 8.967408 13.591742 C 9.178553 13.527048 9.586377 13.358176 9.781180 13.254776 C 9.975983 13.151376 10.343785 12.908551 10.515090 12.770244 C 10.686396 12.631937 11.000664 12.324080 11.142179 12.155947 C 11.283694 11.987814 11.532883 11.626234 11.639409 11.434451 C 11.733511 11.267035 11.947707 10.947890 12.067139 10.797148 C 12.186571 10.646406 12.448623 10.364449 12.590433 10.234106 C 12.732243 10.103762 13.035675 9.865960 13.196359 9.759237 C 13.357042 9.652513 13.694356 9.464743 13.869943 9.384276 C 14.045529 9.303810 14.408388 9.170712 14.594539 9.118491 C 14.780689 9.066271 15.160127 8.991134 15.352240 8.968449 C 15.544354 8.945765 15.930993 8.930446 16.124323 8.937859 C 16.317652 8.945272 16.701939 8.990149 16.891706 9.027476 C 17.081474 9.064802 17.453910 9.168768 17.635426 9.235085 C 17.816942 9.301403 18.168325 9.461887 18.337104 9.555557 C 18.351881 9.727423 18.406319 10.068161 18.445838 10.236151 C 18.485357 10.404141 18.588586 10.733622 18.652029 10.894260 C 18.715472 11.054899 18.865356 11.366307 18.951410 11.516272 C 19.037464 11.666236 19.230905 11.953132 19.337790 12.089320 C 19.444676 12.225509 19.677671 12.481957 19.803177 12.601553 C 14.686449 13.170915 9.339755 15.135304 9.339755 23.846450 C 9.334964 24.182065 9.376667 24.852090 9.423042 25.184581 C 9.469418 25.517072 9.612685 26.173204 9.709167 26.494965 C 9.805648 26.816726 10.047202 27.443952 10.191582 27.747621 C 10.335963 28.051290 10.670276 28.635260 10.859252 28.913890 C 11.048227 29.192519 11.467652 29.719874 11.696900 29.967090 C 11.592651 30.258791 11.429229 30.856119 11.370522 31.160040 C 11.311815 31.463962 11.241080 32.078849 11.229253 32.388060 C 11.217427 32.697271 11.240991 33.315696 11.276315 33.623144 C 11.311638 33.930593 11.428965 34.538452 11.510633 34.837128 C 11.592301 35.135803 11.800715 35.719235 11.926865 36.002326 C 12.053015 36.285417 13.852755 36.600178 18.250911 33.667942 C 18.812088 33.820792 19.949386 34.066414 20.523870 34.158834 C 21.098353 34.251253 22.255679 34.374776 22.836855 34.405701 C 23.418030 34.436626 24.582058 34.436626 25.163233 34.405701 C 25.744409 34.374776 26.901735 34.251253 27.476218 34.158834 C 28.050702 34.066414 29.188000 33.820792 29.749177 33.667942 C 34.147217 36.628624 36.073223 36.002326 36.073223 36.002326 C 36.199390 35.719240 36.407831 35.135813 36.489510 34.837138 C 36.571188 34.538463 36.688530 33.930602 36.723857 33.623152 C 36.759184 33.315701 36.782749 32.697272 36.770919 32.388059 C 36.759088 32.078846 36.688339 31.463956 36.629621 31.160034 C 36.570904 30.856112 36.407454 30.258787 36.303188 29.967090 C 36.533093 29.720333 36.953647 29.193599 37.143078 28.915149 C 37.332509 28.636699 37.667479 28.052860 37.812048 27.749166 C 37.956617 27.445471 38.198244 26.818053 38.294603 26.496148 C 38.390961 26.174244 38.533649 25.517778 38.579565 25.185120 C 38.625480 24.852462 38.665923 24.182155 38.660333 23.846450 C 38.660333 15.106813 33.284848 13.170915 28.168165 12.601553 C 28.332278 12.436821 28.630802 12.080726 28.764116 11.890671 C 28.897430 11.700615 29.130200 11.299284 29.228802 11.089483 C 29.327403 10.879681 29.487589 10.444892 29.548585 10.221503 C 29.609581 9.998113 29.692481 9.542627 29.714081 9.312205 C 29.735680 9.081782 29.738861 8.618967 29.720431 8.388275 C 29.720431 5.342144 29.691663 2.893979 29.691663 2.125295 C 29.691663 1.527442 30.122847 0.815762 31.272674 1.043507 C 32.810506 1.556300 35.710384 2.999236 37.043726 3.915096 C 38.377069 4.830956 40.757770 7.015200 41.781566 8.261964 C 42.805361 9.508729 44.479306 12.262180 45.112887 13.741614 C 45.746468 15.221047 46.581763 18.326756 46.775209 19.922291 C 46.968655 21.517826 46.899485 24.731086 46.637554 26.317007 C 46.375623 27.902927 45.407438 30.970560 44.710767 32.421908 C 44.014097 33.873256 42.223182 36.553555 41.146665 37.755976 C 40.070148 38.958398 37.597614 41.040177 36.226070 41.898929 C 34.854527 42.757682 31.895190 44.076913 30.336688 44.524335 C 28.778185 44.971756 25.565217 45.424494 23.942554 45.425331 Z" transform="scale(1.000000,1.000000) translate(8.057072,1.029884)" opacity="1.000000"></path>
    </g>
</svg>