<?xml version="1.0" encoding="UTF-8" standalone="yes"?>
<!DOCTYPE svg PUBLIC "-//W3C//DTD SVG 1.1//EN" "http://www.w3.org/Graphics/SVG/1.1/DTD/svg11.dtd">

<svg width="64" height="64" viewBox="0 0 64 64" xmlns="http://www.w3.org/2000/svg" xmlns:xlink="http://www.w3.org/1999/xlink" version="1.1" baseProfile="full">
    <g transform="scale(1.000000,-1.000000) translate(0,-64)">
        <path d="M 1.000000 36.587447 C 1.000000 37.943187 1.474513 39.061649 2.423498 39.942835 C 3.372483 40.824062 4.606208 41.264655 6.124592 41.264655 C 7.615889 41.264655 8.822446 40.830854 9.744344 39.963171 C 10.693329 39.068401 11.167842 37.902515 11.167842 36.465433 C 11.167842 35.163949 10.706913 34.079407 9.785016 33.211724 C 8.836030 32.316954 7.588762 31.869568 6.043250 31.869568 L 6.002578 31.869568 C 4.511281 31.869568 3.304724 32.316954 2.382827 33.211724 C 1.460929 34.106494 1.000000 35.231749 1.000000 36.587447 Z M 1.528728 1.000000 L 1.528728 28.168474 L 10.557772 28.168474 L 10.557772 1.000000 L 1.528728 1.000000 Z M 15.560350 1.000000 L 24.589394 1.000000 L 24.589394 16.170420 C 24.589394 17.119446 24.697864 17.851531 24.914765 18.366674 C 25.294350 19.288572 25.870542 20.068120 26.643298 20.705278 C 27.416054 21.342476 28.385374 21.661055 29.551301 21.661055 C 32.588110 21.661055 34.106494 19.613943 34.106494 15.519678 L 34.106494 1.000000 L 43.135537 1.000000 L 43.135537 16.577134 C 43.135537 20.590056 42.186552 23.633616 40.288542 25.707856 C 38.390531 27.782096 35.882490 28.819216 32.764339 28.819216 C 29.266601 28.819216 26.541619 27.314375 24.589394 24.304694 L 24.589394 24.223351 L 24.548722 24.223351 L 24.589394 24.304694 L 24.589394 28.168474 L 15.560350 28.168474 C 15.614565 27.300832 15.641693 24.602978 15.641693 20.074872 C 15.641693 15.546806 15.614565 9.188530 15.560350 1.000000 Z" transform="scale(1.000000,1.000000) translate(9.932231,4.892243)" opacity="1.000000"></path>
    </g>
</svg>