<?xml version="1.0" encoding="UTF-8" standalone="yes"?>
<!DOCTYPE svg PUBLIC "-//W3C//DTD SVG 1.1//EN" "http://www.w3.org/Graphics/SVG/1.1/DTD/svg11.dtd">

<svg width="32" height="32" viewBox="0 0 32 32" xmlns="http://www.w3.org/2000/svg" xmlns:xlink="http://www.w3.org/1999/xlink" version="1.1" baseProfile="full">
    <g transform="scale(1.000000,-1.000000) translate(0,-32)">
        <path d="M 1.000000 25.780038 C 1.000000 26.724058 1.311604 27.502859 1.934784 28.116441 C 2.557963 28.730053 3.368127 29.036842 4.365221 29.036842 C 5.344526 29.036842 6.136849 28.734780 6.742241 28.130598 C 7.365422 27.507560 7.677025 26.695738 7.677025 25.695076 C 7.677025 24.788836 7.374342 24.033653 6.768950 23.429473 C 6.145770 22.806433 5.326712 22.494912 4.311805 22.494912 L 4.285096 22.494912 C 3.305790 22.494912 2.513468 22.806433 1.908076 23.429473 C 1.302683 24.052517 1.000000 24.836047 1.000000 25.780038 Z M 1.347206 1.000000 L 1.347206 19.917789 L 7.276404 19.917789 L 7.276404 1.000000 L 1.347206 1.000000 Z M 10.561501 1.000000 L 16.490699 1.000000 L 16.490699 11.563375 C 16.490699 12.224195 16.561929 12.733956 16.704363 13.092659 C 16.953630 13.734589 17.332004 14.277398 17.839458 14.721060 C 18.346911 15.164752 18.983445 15.386580 19.749087 15.386580 C 21.743303 15.386580 22.740396 13.961148 22.740396 11.110255 L 22.740396 1.000000 L 28.669592 1.000000 L 28.669592 11.846576 C 28.669592 14.640830 28.046411 16.760102 26.800027 18.204425 C 25.553639 19.648748 23.906655 20.370907 21.859027 20.370907 C 19.562132 20.370907 17.772687 19.323069 16.490699 17.227383 L 16.490699 17.170743 L 16.463990 17.170743 L 16.490699 17.227383 L 16.490699 19.917789 L 10.561501 19.917789 C 10.597102 19.313637 10.614917 17.435083 10.614917 14.282100 C 10.614917 11.129145 10.597102 6.701788 10.561501 1.000000 Z" transform="scale(1.000000,1.000000) translate(1.165204,0.981579)" opacity="1.000000"></path>
    </g>
</svg>